<svg width="16" height="11" viewBox="0 0 16 11" fill="none" xmlns="http://www.w3.org/2000/svg">
<path d="M13.2771 5.99249C13.0185 5.66064 13.0925 5.513 13.2771 5.21637C13.2805 5.21298 15.4159 2.21548 15.6359 1.19893L15.6372 1.19825C15.7465 0.827796 15.6372 0.555542 15.1085 0.555542H13.3591C12.9138 0.555542 12.7084 0.789193 12.5984 1.05061C12.5984 1.05061 11.7077 3.21645 10.4477 4.62039C10.041 5.02606 9.85301 5.15609 9.631 5.15609C9.52166 5.15609 9.35166 5.02606 9.35166 4.65561V1.19825C9.35166 0.753976 9.22699 0.555542 8.85831 0.555542H6.10755C5.8282 0.555542 5.6622 0.76278 5.6622 0.955796C5.6622 1.37704 6.29222 1.47389 6.35755 2.65908V5.23059C6.35755 5.79406 6.25688 5.89768 6.03354 5.89768C5.43886 5.89768 3.99547 3.72303 3.14011 1.23415C2.96744 0.751267 2.79876 0.556219 2.35008 0.556219H0.600021C0.10067 0.556219 0 0.78987 0 1.05129C0 1.51317 0.594687 3.80972 2.76543 6.8438C4.21215 8.91482 6.24955 10.037 8.10295 10.037C9.21699 10.037 9.35299 9.7878 9.35299 9.3591C9.35299 7.38018 9.25232 7.19326 9.81034 7.19326C10.069 7.19326 10.5144 7.32329 11.5544 8.32223C12.7431 9.50674 12.9384 10.037 13.6038 10.037H15.3532C15.8519 10.037 16.1046 9.7878 15.9592 9.29611C15.6265 8.26196 13.3785 6.13472 13.2771 5.99249Z" fill="currentColor"/>
</svg>
