<svg width="15" height="15" viewBox="0 0 15 15" fill="none" xmlns="http://www.w3.org/2000/svg">
<path d="M10.694 0.982178H5.103C2.83078 0.982178 0.982193 2.83076 0.982193 5.10299V10.694C0.982193 12.9662 2.83078 14.8148 5.103 14.8148H10.694C12.9662 14.8148 14.8148 12.9662 14.8148 10.694V5.10299C14.8148 2.83076 12.9662 0.982178 10.694 0.982178ZM13.4232 10.694C13.4232 12.2013 12.2013 13.4232 10.694 13.4232H5.103C3.59569 13.4232 2.37375 12.2013 2.37375 10.694V5.10299C2.37375 3.59565 3.59569 2.37374 5.103 2.37374H10.694C12.2013 2.37374 13.4232 3.59565 13.4232 5.10299V10.694Z" fill="currentColor"/>
<path d="M7.89853 4.32104C5.92583 4.32104 4.32092 5.92596 4.32092 7.89862C4.32092 9.87129 5.92583 11.4762 7.89853 11.4762C9.87122 11.4762 11.4761 9.87132 11.4761 7.89862C11.4761 5.92593 9.87122 4.32104 7.89853 4.32104ZM7.89853 10.0847C6.6912 10.0847 5.71248 9.10598 5.71248 7.89865C5.71248 6.69132 6.69122 5.7126 7.89853 5.7126C9.10585 5.7126 10.0846 6.69132 10.0846 7.89865C10.0846 9.10595 9.10583 10.0847 7.89853 10.0847Z" fill="currentColor"/>
<path d="M11.4832 5.20489C11.9566 5.20489 12.3405 4.82108 12.3405 4.34762C12.3405 3.87417 11.9566 3.49036 11.4832 3.49036C11.0097 3.49036 10.6259 3.87417 10.6259 4.34762C10.6259 4.82108 11.0097 5.20489 11.4832 5.20489Z" fill="currentColor"/>
</svg>
